<?xml version="1.0" encoding="UTF-8"?>
<svg id="LOGO" xmlns="http://www.w3.org/2000/svg" viewBox="0 0 593.83 262.8">
  <defs>
    <style>
      .cls-1, .cls-2 {
        stroke-width: 0px;
      }

      .cls-2 {
        fill: #79189c;
      }
    </style>
  </defs>
  <path class="cls-1" d="M79.36,182.82v-1.56l2.81-.94c2.08-.73,3.49-1.72,4.22-2.96.73-1.25,1.09-2.91,1.09-5,.1-6.24.16-12.54.16-18.89v-44.1c0-6.3-.06-12.57-.16-18.81,0-2.08-.29-3.75-.86-5-.57-1.25-1.85-2.24-3.82-2.96l-3.43-1.25v-1.56h75.56l1.09,25.91h-1.56l-8.9-16.39c-1.04-1.98-2.24-3.54-3.59-4.68-1.35-1.14-3.23-1.72-5.62-1.72h-25.14c-.11,7.39-.16,14.94-.16,22.64v22.95h16.24c2.39,0,4.16-.52,5.31-1.56,1.15-1.04,2.24-2.55,3.28-4.53l3.28-5.93h1.56v27.32h-1.56l-3.43-5.93c-1.04-1.87-2.11-3.38-3.2-4.53-1.09-1.14-2.84-1.72-5.23-1.72h-16.24v20.84c0,6.61.05,13.09.16,19.44,0,4.06,1.98,6.71,5.93,7.96l4.68,1.41v1.56h-42.46Z"/>
  <path class="cls-1" d="M188.5,185.16c-7.91,0-14.78-1.64-20.61-4.92-5.83-3.28-10.33-7.93-13.51-13.97-3.18-6.03-4.76-13.11-4.76-21.23s1.69-15.14,5.08-21.08c3.38-5.93,8.01-10.51,13.89-13.74,5.88-3.22,12.51-4.84,19.91-4.84s14,1.59,19.83,4.76c5.83,3.18,10.43,7.73,13.82,13.66,3.38,5.93,5.07,13.01,5.07,21.23s-1.59,15.33-4.76,21.31c-3.18,5.99-7.65,10.62-13.43,13.89-5.78,3.28-12.62,4.92-20.53,4.92ZM188.5,182.04c3.64,0,6.56-1.04,8.74-3.12,2.19-2.08,3.77-5.78,4.76-11.09.99-5.31,1.48-12.8,1.48-22.48s-.5-17.33-1.48-22.64c-.99-5.31-2.57-9-4.76-11.09-2.19-2.08-5.1-3.12-8.74-3.12s-6.59,1.04-8.82,3.12c-2.24,2.08-3.85,5.78-4.84,11.09-.99,5.31-1.48,12.86-1.48,22.64s.49,17.17,1.48,22.48c.99,5.31,2.6,9,4.84,11.09,2.24,2.08,5.18,3.12,8.82,3.12Z"/>
  <path class="cls-1" d="M228.02,182.82v-1.56l2.34-.62c2.08-.62,3.51-1.56,4.29-2.81s1.17-2.86,1.17-4.84v-48.87c0-2.29-.39-3.98-1.17-5.07s-21.9-.45-23.98-.87l-2.34-.62v-1.56l46.54-10.45,1.56,1.56,1.41,13.43v1.25c1.45-2.91,3.36-5.59,5.7-8.04,2.34-2.44,4.94-4.45,7.81-6.01,2.86-1.56,5.7-2.34,8.51-2.34,3.96,0,6.97,1.09,9.05,3.28s3.12,4.94,3.12,8.28c0,3.54-1.01,6.27-3.05,8.2-2.03,1.93-4.45,2.89-7.26,2.89-4.37,0-8.22-2.19-11.55-6.56l-.31-.31c-1.04-1.45-2.24-2.26-3.59-2.42-1.35-.16-2.6.5-3.75,1.95-1.04.94-1.9,2.06-2.57,3.36-.68,1.3-1.33,2.79-1.95,4.45v43.56c0,4.16,1.82,6.77,5.47,7.81l5,1.41v1.56h-40.43Z"/>
  <path class="cls-1" d="M323.16,185.16c-6.66,0-11.84-1.67-15.53-5-3.7-3.33-5.54-8.64-5.54-15.93v-53.39h-10.77v-1.56l3.75-.62c3.23-.73,6.01-1.77,8.35-3.12,2.34-1.35,4.66-3.17,6.95-5.47l12.8-14.21h1.56l-.47,21.86h17.49v3.12h-17.64v56.2c0,3.65.8,6.4,2.42,8.28,1.61,1.87,3.67,2.81,6.17,2.81,2.19,0,4.11-.55,5.78-1.64,1.66-1.09,3.33-2.57,5-4.45l1.56,1.56c-2.08,3.54-4.94,6.35-8.59,8.43-3.64,2.08-8.07,3.12-13.27,3.12Z"/>
  <path class="cls-1" d="M345.4,182.82v-1.56l2.19-.62c2.08-.62,3.51-1.56,4.29-2.81.78-1.25,1.17-2.91,1.17-5v-48.86c0-2.19-.39-3.83-1.17-4.92-.78-1.09-2.21-1.85-4.29-2.26l-2.19-.47v-1.56l28.57-9.21,1.56,1.56-.47,22.17v43.71c0,2.08.39,3.75,1.17,5,.78,1.25,2.16,2.19,4.14,2.81l1.56.47v1.56h-36.53Z"/>
  <path class="cls-1" d="M386.51,182.82v-1.56l2.03-.47c1.98-.52,3.54-1.43,4.68-2.73,1.15-1.3,1.72-2.99,1.72-5.07,0-3.85.03-7.67.08-11.47.05-3.8.08-7.62.08-11.47v-39.19h-8.74v-1.72l3.43-.62c2.08-.21,3.59-.94,4.53-2.19.94-1.25,1.61-2.97,2.03-5.15,1.04-4.06,2.57-7.62,4.61-10.69,2.03-3.07,4.35-5.91,6.95-8.51,3.95-3.75,8.14-6.37,12.57-7.89,4.42-1.51,8.77-2.26,13.04-2.26s7.96.86,11.4,2.58c3.43,1.72,5.15,4.55,5.15,8.51,0,2.81-.83,5.02-2.5,6.64-1.67,1.61-4.01,2.42-7.03,2.42-2.5,0-4.79-.68-6.87-2.03-2.08-1.35-4.11-3.75-6.09-7.18l-2.19-2.65c-1.15-1.46-2.29-2.16-3.43-2.11-1.15.05-1.98.91-2.5,2.57-.73,3.64-1.28,7.91-1.64,12.8-.36,4.89-.55,9.68-.55,14.36h17.49l5.03,3.12h-22.52v61.83c0,3.96,2.08,6.51,6.25,7.65l3.9.94v1.56h-40.9Z"/>
  <path class="cls-1" d="M447.95,220.29c-4.17,0-7.47-1.04-9.91-3.12-2.45-2.08-3.67-4.74-3.67-7.96,0-2.92,1.04-5.26,3.12-7.03,2.08-1.77,4.42-2.65,7.03-2.65s4.79.55,6.56,1.64c1.77,1.09,3.33,2.68,4.68,4.76l1.09,1.25c2.29,3.12,4.58,3.07,6.87-.16.94-1.56,2-3.62,3.2-6.17,1.2-2.55,2.58-5.96,4.14-10.23l-30.29-72.44c-.73-1.98-1.51-3.56-2.34-4.76-.83-1.2-2.19-2.21-4.06-3.05l-2.81-1.09v-1.56h38.87v1.4l-3.12,1.25c-2.29.73-3.46,1.9-3.51,3.51-.05,1.62.34,3.62,1.17,6.01l16.24,42.15,15.46-42.62c.83-2.39,1.14-4.39.94-6.01-.21-1.61-1.51-2.73-3.9-3.36l-3.28-.78v-1.56h21.7v1.56l-3.43,1.09c-2.4.73-4.06,1.77-5,3.12-.94,1.35-1.82,3.23-2.65,5.62l-25.14,68.54c-4.06,10.93-8.12,19.1-12.18,24.51-4.06,5.41-9.32,8.12-15.77,8.12Z"/>
  <circle class="cls-2" cx="504.93" cy="175.37" r="11.48"/>
  <circle class="cls-1" cx="361.98" cy="90.85" r="11.48"/>
</svg>